<svg width="80" height="80" viewBox="0 0 80 80" fill="none" xmlns="http://www.w3.org/2000/svg">
<g filter="url(#filter0_d_693_14348)">
<rect x="10" y="4" width="60" height="60" rx="30" fill="#797EF3"/>
<mask id="mask0_693_14348" style="mask-type:alpha" maskUnits="userSpaceOnUse" x="28" y="20" width="24" height="24">
<path d="M28 20H52V44H28V20Z" fill="#D9D9D9"/>
</mask>
<g mask="url(#mask0_693_14348)">
<path d="M32.85 44.5C32.1166 44.5 31.4916 44.2417 30.975 43.725C30.4583 43.2083 30.2 42.5833 30.2 41.85V27.55C30.2 26.8167 30.4583 26.1917 30.975 25.675C31.4916 25.1583 32.1166 24.9 32.85 24.9H42.275L39.625 27.55H32.85V41.85H47.15V35.075L49.7999 32.425V41.85C49.7999 42.5833 49.5416 43.2083 49.025 43.725C48.5083 44.2417 47.8833 44.5 47.15 44.5H32.85ZM43.75 26.225L45.65 28.125L39.325 34.4V35.375H40.275L46.6 29.075L48.45 30.95L42.175 37.25C41.925 37.5 41.6373 37.6917 41.312 37.825C40.9873 37.9583 40.65 38.025 40.3 38.025H38C37.6333 38.025 37.3206 37.8957 37.062 37.637C36.804 37.379 36.675 37.0667 36.675 36.7V34.4C36.675 34.05 36.7416 33.7123 36.875 33.387C37.0083 33.0623 37.2 32.775 37.45 32.525L43.75 26.225ZM48.45 30.95L43.75 26.225L46.225 23.75C46.7583 23.2167 47.3916 22.95 48.125 22.95C48.8583 22.95 49.4833 23.2167 50 23.75L50.95 24.725C51.4666 25.2583 51.725 25.8833 51.725 26.6C51.725 27.3167 51.4666 27.9333 50.95 28.45L48.45 30.95Z" fill="white"/>
</g>
</g>
<defs>
<filter id="filter0_d_693_14348" x="0" y="0" width="80" height="80" filterUnits="userSpaceOnUse" color-interpolation-filters="sRGB">
<feFlood flood-opacity="0" result="BackgroundImageFix"/>
<feColorMatrix in="SourceAlpha" type="matrix" values="0 0 0 0 0 0 0 0 0 0 0 0 0 0 0 0 0 0 127 0" result="hardAlpha"/>
<feOffset dy="6"/>
<feGaussianBlur stdDeviation="5"/>
<feComposite in2="hardAlpha" operator="out"/>
<feColorMatrix type="matrix" values="0 0 0 0 0 0 0 0 0 0 0 0 0 0 0 0 0 0 0.2 0"/>
<feBlend mode="normal" in2="BackgroundImageFix" result="effect1_dropShadow_693_14348"/>
<feBlend mode="normal" in="SourceGraphic" in2="effect1_dropShadow_693_14348" result="shape"/>
</filter>
</defs>
</svg>
