<svg width="80" height="80" viewBox="0 0 80 80" fill="none" xmlns="http://www.w3.org/2000/svg">
<g filter="url(#filter0_d_693_14346)">
<rect x="10" y="4" width="60" height="60" rx="30" fill="#444DF2"/>
<mask id="mask0_693_14346" style="mask-type:alpha" maskUnits="userSpaceOnUse" x="28" y="20" width="24" height="24">
<path d="M28 20H52V44H28V20Z" fill="#D9D9D9"/>
</mask>
<g mask="url(#mask0_693_14346)">
<path d="M33 43.7C32.45 43.7 31.9792 43.5042 31.5875 43.1125C31.1958 42.7208 31 42.25 31 41.7V27.7C31 27.15 31.1958 26.6792 31.5875 26.2875C31.9792 25.8958 32.45 25.7 33 25.7H41.925L39.925 27.7H33V41.7H47V34.75L49 32.75V41.7C49 42.25 48.8042 42.7208 48.4125 43.1125C48.0208 43.5042 47.55 43.7 47 43.7H33ZM44.175 26.275L45.6 27.675L39 34.275V35.7H40.4L47.025 29.075L48.45 30.475L41.825 37.1C41.6417 37.2833 41.4292 37.4292 41.1875 37.5375C40.9458 37.6458 40.6917 37.7 40.425 37.7H38C37.7167 37.7 37.4792 37.6042 37.2875 37.4125C37.0958 37.2208 37 36.9833 37 36.7V34.275C37 34.0083 37.05 33.7542 37.15 33.5125C37.25 33.2708 37.3917 33.0583 37.575 32.875L44.175 26.275ZM48.45 30.475L44.175 26.275L46.675 23.775C47.075 23.375 47.5542 23.175 48.1125 23.175C48.6708 23.175 49.1417 23.375 49.525 23.775L50.925 25.2C51.3083 25.5833 51.5 26.05 51.5 26.6C51.5 27.15 51.3083 27.6167 50.925 28L48.45 30.475Z" fill="white"/>
</g>
</g>
<defs>
<filter id="filter0_d_693_14346" x="0" y="0" width="80" height="80" filterUnits="userSpaceOnUse" color-interpolation-filters="sRGB">
<feFlood flood-opacity="0" result="BackgroundImageFix"/>
<feColorMatrix in="SourceAlpha" type="matrix" values="0 0 0 0 0 0 0 0 0 0 0 0 0 0 0 0 0 0 127 0" result="hardAlpha"/>
<feOffset dy="6"/>
<feGaussianBlur stdDeviation="5"/>
<feComposite in2="hardAlpha" operator="out"/>
<feColorMatrix type="matrix" values="0 0 0 0 0 0 0 0 0 0 0 0 0 0 0 0 0 0 0.2 0"/>
<feBlend mode="normal" in2="BackgroundImageFix" result="effect1_dropShadow_693_14346"/>
<feBlend mode="normal" in="SourceGraphic" in2="effect1_dropShadow_693_14346" result="shape"/>
</filter>
</defs>
</svg>
