<svg width="7" height="12" viewBox="0 0 7 12" fill="none" xmlns="http://www.w3.org/2000/svg">
<path d="M8.17621e-05 5.80729C8.17682e-05 5.6684 0.0261242 5.53403 0.0782077 5.40417C0.130291 5.27361 0.199735 5.16493 0.286541 5.07812L5.07821 0.286458C5.26918 0.0954856 5.51223 -5.72953e-08 5.80737 -4.43943e-08C6.10251 -3.14934e-08 6.34557 0.0954857 6.53654 0.286458C6.72751 0.47743 6.823 0.720486 6.823 1.01562C6.823 1.31076 6.72751 1.55382 6.53654 1.74479L2.47404 5.80729L6.53654 9.86979C6.72751 10.0608 6.823 10.3038 6.823 10.599C6.823 10.8941 6.72751 11.1372 6.53654 11.3281C6.34557 11.5191 6.10251 11.6146 5.80737 11.6146C5.51223 11.6146 5.26918 11.5191 5.07821 11.3281L0.286541 6.53646C0.182374 6.43229 0.108763 6.31944 0.0657074 6.19792C0.0219576 6.07639 8.17561e-05 5.94618 8.17621e-05 5.80729Z" fill="black"/>
</svg>
