<svg width="40" height="40" viewBox="0 0 40 40" fill="none" xmlns="http://www.w3.org/2000/svg">
<mask id="mask0_182_553" style="mask-type:alpha" maskUnits="userSpaceOnUse" x="0" y="0" width="40" height="40">
<rect width="40" height="40" fill="#D9D9D9"/>
</mask>
<g mask="url(#mask0_182_553)">
<path d="M4.24967 35.1086C3.55523 35.3864 2.89551 35.3253 2.27051 34.9253C1.64551 34.5267 1.33301 33.9454 1.33301 33.1815V25.4211C1.33301 24.935 1.4719 24.501 1.74967 24.119C2.02745 23.7371 2.4094 23.494 2.89551 23.3899L17.9997 19.6399L2.89551 15.8899C2.4094 15.7857 2.02745 15.5426 1.74967 15.1607C1.4719 14.7788 1.33301 14.3447 1.33301 13.8586V6.0982C1.33301 5.33431 1.64551 4.75237 2.27051 4.35237C2.89551 3.95376 3.55523 3.89334 4.24967 4.17112L36.333 17.7128C37.2011 18.0947 37.6351 18.7371 37.6351 19.6399C37.6351 20.5426 37.2011 21.185 36.333 21.5669L4.24967 35.1086Z" fill="white"/>
</g>
</svg>
